# xmcd
#
# Track frame offsets:
#	150
#	15622
#	31995
#	48578
#	64224
#	80374
#	99167
#	117164
#	134225
#	152722
#	170453
#	186860
#	199119
#	218249
#	236889
#	255067
#	268423
#	282620
#	299609
#	314413
#
# Disc length: 4381 seconds
#
# Revision: 0
# Processed by: cddbd v1.4PL0 Copyright (c) Steve Scherf et al.
# Submitted via: EasyCDDAExtractor 4.6.0.1
#
DISCID=32111b14
DTITLE=Dzej - Best of Dzej Volume 2
DYEAR=2001
DGENRE=Country
TTITLE0=Sunce ljubavi
TTITLE1=Zivote zeno bez morala
TTITLE2=Nije lako biti mlad
TTITLE3=Gde cu sad moja ruzo
TTITLE4=Nocas mi se na spava
TTITLE5=Nedelja
TTITLE6=Vetrovi me lome
TTITLE7=Upalite zamnom svece
TTITLE8=Dve godine duge
TTITLE9=Zar ja da ti brisem suze
TTITLE10=Ljubav je lasta
TTITLE11=Nikom nije zao kao meni
TTITLE12=Ugasila si me
TTITLE13=Dunav
TTITLE14=Iznajmicu sobu sa pogledom na te
TTITLE15=Niz reku zivota
TTITLE16=Uspeo sam u zivotu
TTITLE17=Nisam ja mali
TTITLE18=Ti bi mogla da mi budes cerka
TTITLE19=Zato
EXTD=
EXTT0=
EXTT1=
EXTT2=
EXTT3=
EXTT4=
EXTT5=
EXTT6=
EXTT7=
EXTT8=
EXTT9=
EXTT10=
EXTT11=
EXTT12=
EXTT13=
EXTT14=
EXTT15=
EXTT16=
EXTT17=
EXTT18=
EXTT19=
PLAYORDER=
